# AST/ASF file generated using VICON BodyLanguage
# -----------------------------------------------
:version 1.10
:name VICON
:units
  mass 1.0
  length 0.45
  angle deg
:documentation
   .ast/.asf automatically generated from VICON data using
   VICON BodyBuilder and BodyLanguage model FoxedUp or BRILLIANT.MOD
:root
   order TX TY TZ RX RY RZ
   axis XYZ
   position 0 0 0  
   orientation 0 0 0 
:bonedata
  begin
     id 1 
     name lhipjoint
     direction 0.650112 -0.723553 0.232005 
     length 2.45805 
     axis 0 0 0  XYZ
  end
  begin
     id 2 
     name lfemur
     direction 0.34202 -0.939693 0  
     length 7.00073  
     axis 0 0 20  XYZ
    dof rx ry rz
    limits (-160.0 20.0)
           (-70.0 70.0)
           (-60.0 70.0)
  end
  begin
     id 3 
     name ltibia
     direction 0.34202 -0.939693 0   
     length 7.8748   
     axis 0 0 20   XYZ
    dof rx
    limits (-10.0 170.0)
  end
  begin
     id 4 
     name lfoot
     direction 0.0542825 -0.14914 0.987325   
     length 1.75978   
     axis -90 7.62852e-016 20   XYZ
    dof rx rz
    limits (-45.0 90.0)
           (-70.0 20.0)
  end
  begin
     id 5 
     name ltoes
     direction 1.53509e-011 -4.21906e-011 1   
     length 0.893912   
     axis -90 7.62852e-016 20   XYZ
    dof rx
    limits (-90.0 20.0)
  end
  begin
     id 6 
     name rhipjoint
     direction -0.637897 -0.733345 0.235145   
     length 2.42522  
     axis 0 0 0  XYZ 
  end
  begin
     id 7 
     name rfemur
     direction -0.34202 -0.939693 0   
     length 7.02549   
     axis 0 0 -20   XYZ
    dof rx ry rz
    limits (-160.0 20.0)
           (-70.0 70.0)
           (-70.0 60.0)
  end
  begin
     id 8 
     name rtibia
     direction -0.34202 -0.939693 0   
     length 7.71512   
     axis 0 0 -20   XYZ
    dof rx
    limits (-10.0 170.0)
 end
 begin
     id 9 
     name rfoot
     direction -0.0822618 -0.226012 0.970645   
     length 1.90014  
     axis -90 -7.62852e-016 -20   XYZ
    dof rx rz
    limits (-45.0 90.0)
           (-20.0 70.0)
  end
  begin
     id 10 
     name rtoes
     direction -1.53542e-011 -4.21872e-011 1   
     length 0.957341   
     axis -90 -7.62852e-016 -20   XYZ
    dof rx
    limits (-90.0 20.0)
  end
  begin
     id 11 
     name lowerback
     direction -0.0022947 0.999774 -0.0211557   
     length 1.89909   
     axis 0 0 0   XYZ
    dof rx ry rz
    limits (-20.0 45.0)
           (-30.0 30.0)
           (-30.0 30.0)
  end
  begin
     id 12 
     name upperback
     direction 0.0107737 0.998635 0.0511027   
     length 1.8853   
     axis 0 0 0   XYZ
    dof rx ry rz
    limits (-20.0 45.0)
           (-30.0 30.0)
           (-30.0 30.0)
  end
  begin
     id 13 
     name thorax
     direction 0.011824 0.998136 0.0598754   
     length 1.88911   
     axis 0 0 0   XYZ
    dof rx ry rz
    limits (-20.0 45.0)
           (-30.0 30.0)
           (-30.0 30.0)
  end
  begin
     id 14 
     name lowerneck
     direction -0.0685355 0.990319 0.120714   
     length 1.91222   
     axis 0 0 0   XYZ
    dof rx ry rz
    limits (-20.0 45.0)
           (-30.0 30.0)
           (-30.0 30.0)
  end
  begin
     id 15 
     name upperneck
     direction 0.0886204 0.955665 -0.280805   
     length 1.92526   
     axis 0 0 0   XYZ
    dof rx ry rz
    limits (-20.0 45.0)
           (-30.0 30.0)
           (-30.0 30.0)
  end
  begin
     id 16
     name head
     direction 0.0233423 0.993502 -0.111393  
     length 1.96056  
     axis 0 0 0   XYZ
    dof rx ry rz
    limits (-20.0 45.0)
           (-30.0 30.0)
           (-30.0 30.0)
  end
  begin
     id 17 
     name lclavicle
     direction 0.941873 0.32922 0.0670041  
     length 3.31705  
     axis 0 0 0   XYZ
    dof ry rz
    limits (-20.0 10.0)
           (0.0 20.0)
  end
  begin
     id 18 
     name lhumerus
     direction 1 -4.4898e-011 3.38707e-028   
     length 5.29277   
     axis 180 -30 -90   XYZ
    dof rx ry rz
    limits (-60.0 90.0)
           (-90.0 90.0)
           (-90.0 90.0)
  end
  begin
     id 19
     name lradius
     direction 1 -4.48952e-011 1.63213e-028   
     length 2.85226   
     axis 180 -30 -90   XYZ
    dof rx
    limits (-10.0 170.0)
  end
  begin
     id 20
     name lwrist
     direction 1 -4.49001e-011 1.27856e-027   
     length 1.42613   
     axis -1.61767e-015 90 90   XYZ
    dof ry
    limits (-180.0 0.0)
 end
  begin
     id 21 
     name lhand
     direction 1 -4.48976e-011 2.55931e-027   
     length 0.602097   
     axis -1.63363e-015 90 90   XYZ
    dof rx rz
    limits (-90.0 90.0)
           (-45.0 45.0)
  end
  begin
     id 22 
     name lfingers
     direction 1 -4.48986e-011 5.11684e-027   
     length 0.485426   
     axis -3.26723e-015 90 90   XYZ
    dof rx
    limits (0.0 90.0)
  end
  begin
     id 23
     name lthumb
     direction 0.707107 -6.34915e-011 0.707107   
     length 0.696978   
     axis -90 45 -2.25915e-014   XYZ
    dof rx rz
    limits (-45.0 45.0)
           (-45.0 45.0)
  end
  begin
     id 24 
     name rclavicle
     direction -0.939974 0.327078 0.0973096   
     length 3.10337  
     axis 0 0 0   XYZ 
    dof ry rz
    limits (-10.0 20.0)
           (-20.0 0.0)
  end
  begin
     id 25 
     name rhumerus
     direction -1 -4.48975e-011 1.83745e-027  
     length 5.13304   
     axis 180 30 90   XYZ
    dof rx ry rz
    limits (-90.0 60.0)
           (-90.0 90.0)
           (-90.0 90.0)
  end
  begin
     id 26 
     name rradius
     direction -1 -4.48977e-011 7.1775e-029   
     length 2.74305   
     axis 180 30 90   XYZ
    dof rx
    limits (-10.0 170.0)
  end
  begin
     id 27 
     name rwrist
     direction -1 -4.48977e-011 1.27963e-027   
     length 1.37152   
     axis -1.61767e-015 -90 -90   XYZ
    dof ry
    limits (-180.0 0.0)
  end
  begin
     id 28
     name rhand
     direction -1 -4.4888e-011 2.56782e-027   
     length 0.767976   
     axis -1.63363e-015 -90 -90   XYZ
    dof rx rz
    limits (-90.0 90.0)
           (-45.0 45.0)
  end
  begin
     id 29
     name rfingers
     direction -1 -4.48947e-011 5.12384e-027   
     length 0.619162   
     axis -3.26723e-015 -90 -90   XYZ
    dof rx
    limits (0.0 90.0)
  end
  begin
     id 30
     name rthumb
     direction -0.707107 -6.34857e-011 0.707107   
     length 0.888997   
     axis -90 -45 2.25915e-014   XYZ
    dof rx rz
    limits (-45.0 45.0)
           (-45.0 45.0)
  end
:hierarchy
  begin
    root lhipjoint rhipjoint lowerback
    lhipjoint lfemur
    lfemur ltibia
    ltibia lfoot
    lfoot ltoes
    rhipjoint rfemur
    rfemur rtibia
    rtibia rfoot
    rfoot rtoes
    lowerback upperback
    upperback thorax
    thorax lowerneck lclavicle rclavicle
    lowerneck upperneck
    upperneck head
    lclavicle lhumerus
    lhumerus lradius
    lradius lwrist
    lwrist lhand lthumb
    lhand lfingers
    rclavicle rhumerus
    rhumerus rradius
    rradius rwrist
    rwrist rhand rthumb
    rhand rfingers
  end

#!OML:ASF F:\VICON\USERDATA\INSTALL\rory3\rory3.ASF
:FULLY-SPECIFIED
:DEGREES
232
root 0.0967304 17.3854 -0.431645 3.45196 5.40117 -2.00768
lowerback -2.59059 -0.813586 -0.524022
upperback -2.34374 -1.07129 0.587762
thorax -0.928301 -0.523787 0.876821
lowerneck -14.6956 -12.0642 -16.5062
upperneck 10.6849 -14.0917 8.31299
head 7.42229 -6.83292 3.6064
rclavicle 4.29872e-015 1.39149e-015
rhumerus -29.2118 14.645 -89.3714
rradius 24.2508
rwrist 31.1704
rhand -6.40769 14.7406
rfingers 7.12502
rthumb 19.4404 -14.3076
lclavicle 4.29872e-015 1.39149e-015
lhumerus 42.1689 -48.3772 56.2102
lradius 83.214
lwrist 16.0977
lhand 8.62213 19.6029
lfingers 7.12502
lthumb 33.8183 46.4268
rfemur -0.504403 8.26317 21.8203
rtibia 9.80924
rfoot -10.5895 -14.8777
rtoes -11.9827
lfemur -9.47755 -15.9916 -15.8526
ltibia 21.5373
lfoot -15.2484 5.21812
ltoes -14.7824
233
root 0.0903841 17.387 -0.419092 3.34374 5.46238 -2.04929
lowerback -2.63066 -0.860258 -0.5866
upperback -2.4172 -1.13148 0.696251
thorax -0.97682 -0.551703 1.02203
lowerneck -14.6732 -12.0017 -16.8054
upperneck 10.889 -13.9104 8.03881
head 7.46371 -6.78267 3.58491
rclavicle -6.21202e-016 -1.03368e-014
rhumerus -28.8774 13.779 -88.6907
rradius 23.8437
rwrist 31.4845
rhand -6.51103 14.4474
rfingers 7.12502
rthumb 19.341 -14.6107
lclavicle -6.21202e-016 -1.03368e-014
lhumerus 39.8142 -45.8551 59.4012
lradius 85.851
lwrist 18.9217
lhand 8.29941 20.0482
lfingers 7.12502
lthumb 33.5117 46.939
rfemur -0.12702 8.22518 21.9184
rtibia 9.40906
rfoot -10.5013 -14.8702
rtoes -12.4524
lfemur -9.27096 -16.0527 -15.8174
ltibia 21.4504
lfoot -15.3765 5.03704
ltoes -14.6684
234
root 0.0815791 17.3879 -0.408292 3.26978 5.46736 -2.04108
lowerback -2.6878 -0.828449 -0.637547
upperback -2.49708 -1.08791 0.662361
thorax -1.02753 -0.528878 1.01655
lowerneck -14.6423 -11.9559 -16.8832
upperneck 11.1777 -13.8053 7.7611
head 7.5254 -6.76251 3.51807
rclavicle 1.69712e-014 1.0138e-014
rhumerus -28.5505 12.3633 -88.0209
rradius 23.2832
rwrist 32.2401
rhand -6.99404 14.4635
rfingers 7.12502
rthumb 18.8766 -14.6405
lclavicle 1.69712e-014 1.0138e-014
lhumerus 37.8816 -43.4766 62.2078
lradius 88.5298
lwrist 21.5755
lhand 7.44058 20.5819
lfingers 7.12502
lthumb 32.695 47.646
rfemur 0.233217 8.24091 21.9595
rtibia 8.95138
rfoot -10.2961 -14.8703
rtoes -12.6018
lfemur -9.09346 -16.0419 -15.8179
ltibia 21.3595
lfoot -15.5183 4.68117
ltoes -13.6419
235
root 0.0743818 17.3881 -0.39715 3.25653 5.48632 -2.17274
lowerback -2.82709 -0.786082 -0.487852
upperback -2.57201 -1.03348 0.628649
thorax -1.0309 -0.503749 0.897766
lowerneck -14.6645 -11.9044 -16.8591
upperneck 11.4889 -13.6992 7.45049
head 7.59405 -6.73984 3.4233
rclavicle -2.28602e-015 1.41137e-014
rhumerus -28.0894 10.338 -87.1923
rradius 22.5416
rwrist 33.5102
rhand -7.63956 14.8586
rfingers 7.12502
rthumb 18.2556 -14.3048
lclavicle -2.28602e-015 1.41137e-014
lhumerus 36.2188 -41.0658 64.6959
lradius 91.0883
lwrist 24.5925
lhand 5.70649 20.6634
lfingers 7.12502
lthumb 31.0436 48.0566
rfemur 0.437707 8.25355 22.1302
rtibia 8.62898
rfoot -10.1421 -14.8817
rtoes -12.6521
lfemur -9.02191 -16.0378 -15.6501
ltibia 21.3063
lfoot -15.4902 4.8754
ltoes -14.306
236
root 0.0677488 17.3882 -0.386478 3.20134 5.44915 -2.29842
lowerback -2.95587 -0.699831 -0.3007
upperback -2.60749 -0.922201 0.523285
thorax -1.00197 -0.451658 0.685709
lowerneck -14.7087 -11.8572 -16.6974
upperneck 11.8712 -13.6403 7.20875
head 7.69186 -6.72947 3.32213
rclavicle 1.9133e-015 -1.03368e-014
rhumerus -27.6335 8.2996 -86.5309
rradius 21.9104
rwrist 34.3767
rhand -8.00538 14.953
rfingers 7.12502
rthumb 17.9037 -14.2429
lclavicle 1.9133e-015 -1.03368e-014
lhumerus 34.7026 -38.5823 67.0139
lradius 93.6014
lwrist 27.6051
lhand 3.99102 20.5553
lfingers 7.12502
lthumb 29.4071 48.2484
rfemur 0.635145 8.3205 22.3009
rtibia 8.39793
rfoot -10.0205 -14.9205
rtoes -12.518
lfemur -8.90733 -16.0116 -15.5121
ltibia 21.2732
lfoot -15.4563 5.3946
ltoes -16.6281
